<?xml version="1.0" standalone="no"?><!DOCTYPE svg PUBLIC "-//W3C//DTD SVG 1.1//EN" "http://www.w3.org/Graphics/SVG/1.1/DTD/svg11.dtd"><svg t="1623231077045" class="icon" viewBox="0 0 1024 1024" version="1.1" xmlns="http://www.w3.org/2000/svg" p-id="3137" xmlns:xlink="http://www.w3.org/1999/xlink" width="200" height="200"><defs><style type="text/css"></style></defs><path d="M933.12 494.016v-32.256c0-8.448-0.448-17.344 0-25.792 0-3.2-1.152-3.84-4.288-3.84h-21.248c1.92 22.016 3.584 42.88 5.44 63.488 6.464-0.512 12.992-0.96 20.096-1.6z m-153.408-1.472v-4.032c-0.896-10.88-2.304-21.12-3.2-32l-1.92-20.48c-0.384-1.728 0.384-4.16-2.24-3.776-6.08 0.64-12.032 2.048-18.176 2.688 3.52 20.672 6.72 40.448 10.048 60.672l15.488-2.944v-0.128z m178.944-1.344v-54.144c0-3.84-1.664-4.928-5.184-4.928h-20.416v62.336l25.6 1.088v-4.352z m-153.408-10.048l-4.736-57.92c-0.384-2.56-1.28-3.712-3.072-3.712-5.632 0-11.648 0-17.728 0.384 2.432 21.376 4.48 41.856 6.72 62.976 6.72-0.64 12.608-0.896 18.816-1.728z m153.088 186.752l-1.536-61.248c-0.32-25.472 0-51.392 0-76.8 0-5.696-0.32-10.88-0.512-16.448 0-2.56-1.472-4.672-4.16-4.672-10.88-0.448-21.696-0.64-32.512-0.64a55.616 55.616 0 0 0-12.032 1.536 12.416 12.416 0 0 1 0.384 3.584l4.608 51.84c1.408 16.64 3.2 33.856 4.48 50.432 1.728 18.24 3.136 36.416 4.864 54.528 0 1.024 1.6 2.688 2.688 2.688 10.88 0.384 22.4 0 34.176 0-0.448-2.176-0.448-3.648-0.448-4.864v0.064z m-133.312-51.264l-3.84-36.928c-1.408-13.952-2.56-28.16-4.352-42.24-0.96-8.64-2.368-16.896-3.52-25.088-0.384-3.072-2.368-4.608-5.504-4.224-5.504 0.768-11.328 0.768-16.96 1.472-7.936 1.152-15.68 2.56-23.872 3.584 9.6 53.184 19.52 106.496 29.76 159.616 11.264-1.6 22.784-3.072 34.176-4.544-0.384-4.032-1.088-8.128-1.536-11.84l-4.48-39.808h0.128z m64.704-10.24c-1.152-12.096-2.24-24.768-3.712-36.8-1.536-16.576-3.264-33.28-4.864-50.048-1.536-15.36-2.24-30.528-3.264-45.952l-4.864-63.616-3.328-46.912c-0.384-5.952-2.816-7.36-9.216-6.912-7.616 0.768-15.168 0.96-22.784 1.472-6.72 0.64-13.184 1.472-19.584 2.112 19.84 99.264 28.544 198.848 38.912 297.6 12.096 1.152 23.04 1.664 34.496 2.752 2.24 0.384 3.264 0 3.264-2.048l-1.024-11.52c-1.024-13.44-2.304-26.752-4.032-40.128z m-133.376-15.68a184.96 184.96 0 0 0-43.2-22.848 247.104 247.104 0 0 0-96.64-15.68c-7.744 0-15.68 0.704-23.68 1.088 0-0.64-0.704-1.472-0.704-2.56-1.984-23.424-4.608-46.848-6.272-69.888-1.472-19.2-2.048-38.4-2.56-57.728-0.576-36.864-0.576-73.792-0.576-110.72 0-8.832-0.704-7.68-7.424-4.864-20.864 8.32-41.6 16.448-62.528 24.512-0.576 0.384-1.664 2.432-1.536 3.52 6.4 23.424 11.072 47.296 14.144 71.296 3.2 20.736 6.016 40.768 8.96 60.992 2.56 17.92 4.224 35.584 6.336 53.632 2.176 18.176 4.672 36.352 6.72 54.784 2.24 17.536 4.288 34.432 6.4 52.032a908.736 908.736 0 0 1 5.44 66.56c0 1.984 0.64 3.136 2.816 3.136 4.608 0 8.832 0.576 13.248 0 21.504-2.176 43.072-3.584 64.256-6.656 16.192-2.56 32-6.4 47.68-11.52 22.208-7.36 41.216-19.968 59.584-34.304a44.16 44.16 0 0 0 16.896-22.016c6.208-14.656 3.584-24.64-7.424-32.768zM472.896 494.016v-32.256c0-8.448-0.448-17.344 0-25.792 0-3.2-1.088-3.84-4.224-3.84H447.36c1.92 22.016 3.52 42.88 5.44 63.488 6.464-0.512 12.992-0.96 20.032-1.6z m-140.544-1.472v-4.032c-0.96-10.88-2.304-21.12-3.2-32-0.576-6.848-1.408-13.44-1.984-20.48-0.384-1.728 0.384-4.16-2.24-3.776-6.08 0.64-12.096 2.048-18.112 2.688 3.456 20.672 6.656 40.448 10.112 60.672l15.424-2.944v-0.128z m179.008-1.344v-54.144c0-3.84-1.728-4.928-5.248-4.928H485.76v62.336l25.6 1.088v-4.352z m-153.472-10.048c-1.728-19.84-3.2-38.656-4.8-57.92-0.384-2.56-1.28-3.712-3.072-3.712-5.632 0-11.52 0-17.664 0.384l6.72 62.976c6.656-0.64 12.608-0.896 18.816-1.728z m140.16 186.752c-0.32-20.672-0.96-40.576-1.28-61.248-0.512-25.472 0-51.392 0-76.8 0-5.696-0.512-10.88-0.768-16.448 0-2.56-1.472-4.672-4.096-4.672a789.12 789.12 0 0 0-32.512-0.64 55.168 55.168 0 0 0-11.968 1.536 12.48 12.48 0 0 1 0.384 3.584l4.48 51.84c1.472 16.64 3.2 33.856 4.608 50.432 1.728 18.24 3.136 36.416 4.736 54.528 0 1.024 1.664 2.688 2.688 2.688 11.008 0.384 22.656 0 34.176 0-0.448-2.176-0.448-3.648-0.448-4.864v0.064zM377.6 616.64l-3.84-36.928c-1.408-13.952-2.56-28.16-4.288-42.24-1.088-8.64-2.496-16.896-3.584-25.088-0.384-3.072-2.304-4.608-5.44-4.224-5.504 0.768-11.392 0.768-17.152 1.472-7.68 1.152-15.616 2.56-23.808 3.584 9.664 53.184 19.648 106.496 29.76 159.616 11.712-1.664 22.912-3.072 34.24-4.544-0.384-4.032-1.024-8.128-1.344-11.84L377.6 616.64z m64.64-10.24a871.232 871.232 0 0 0-3.648-36.8c-1.536-16.576-3.264-33.28-4.8-50.048-1.536-15.36-2.24-30.528-3.328-45.952l-4.8-63.616-3.328-46.912c-0.448-5.952-2.816-7.36-9.152-6.912-7.68 0.64-15.296 1.024-22.976 1.472l-19.584 2.112c19.84 99.264 28.608 198.848 38.976 297.6 12.096 1.152 23.04 1.664 34.56 2.752 2.176 0.384 3.264 0 3.264-2.048l-1.088-11.52c-0.96-13.44-2.304-26.752-4.032-40.128z m-133.376-15.872a180.928 180.928 0 0 0-43.2-22.784 246.912 246.912 0 0 0-96.64-15.744c-7.872 0-15.68 0.768-23.68 1.152 0-0.64-0.704-1.472-0.704-2.56-2.048-23.424-4.544-46.72-6.272-69.76-1.472-19.2-2.112-38.4-2.56-57.6-0.704-37.12-0.704-73.856-0.704-110.912 0-8.768-0.64-7.68-7.296-4.8a4697.6 4697.6 0 0 1-62.592 24.448c-0.576 0.64-1.664 2.752-1.28 3.712 6.4 23.424 11.072 47.488 14.208 71.296 3.2 20.736 5.952 40.832 8.96 61.056 2.496 17.792 4.096 35.584 6.272 53.504 2.112 18.176 4.608 36.288 6.72 54.784l6.336 52.032c1.472 12.544 2.816 24.896 3.712 37.376 0.768 9.856 1.664 19.712 1.92 29.056 0 2.048 0.448 3.2 2.624 3.2 4.608 0 8.832 0.576 13.248 0 21.632-2.176 43.2-3.584 64.256-6.656 16.32-2.56 32-6.4 47.68-11.52 22.272-7.36 41.28-19.968 59.584-34.304a43.2 43.2 0 0 0 16.96-21.952c5.952-14.72 3.456-24.896-7.552-33.024zM204.544 1.344h613.568c54.208 0 106.24 21.312 144.576 59.328 38.4 38.016 59.904 89.6 59.904 143.36v608.256c0 53.76-21.568 105.344-59.904 143.36a205.44 205.44 0 0 1-144.64 59.392H204.48C91.52 1014.976 0 924.16 0 812.288V204.032C0 92.032 91.52 1.344 204.48 1.344z" fill="#EA4975" p-id="3138"></path><path d="M642.88 655.36l-8.832-81.92c11.52 3.2 59.968 27.392 62.272 31.104-17.664 16.704-35.136 33.536-53.44 50.816m-429.12 0L204.8 573.44c11.52 3.2 59.968 27.392 62.336 31.104-17.6 16.704-35.072 33.536-53.376 50.816" fill="#F08198" p-id="3139"></path></svg>