<?xml version="1.0" standalone="no"?><!DOCTYPE svg PUBLIC "-//W3C//DTD SVG 1.1//EN" "http://www.w3.org/Graphics/SVG/1.1/DTD/svg11.dtd"><svg t="1623173728934" class="icon" viewBox="0 0 1024 1024" version="1.1" xmlns="http://www.w3.org/2000/svg" p-id="9342" xmlns:xlink="http://www.w3.org/1999/xlink" width="200" height="200"><defs><style type="text/css"></style></defs><path d="M512 998.4a486.4 486.4 0 1 0 0-972.8 486.4 486.4 0 0 0 0 972.8z m0 25.6C229.2224 1024 0 794.7776 0 512S229.2224 0 512 0s512 229.2224 512 512-229.2224 512-512 512z" fill="#E2B39A" p-id="9343"></path><path d="M284.5696 379.2384L493.6192 512c9.6256 6.0928 27.136 6.0928 36.7616 0l204.4416-130.2528a15.872 15.872 0 0 1 12.5952-1.9968 47.9232 47.9232 0 0 0-43.6224-28.16H320.2048c-18.2272 0-34.048 10.24-42.1376 25.2416a15.872 15.872 0 0 1 6.5024 2.3552z m262.912 159.744c-9.728 6.144-22.272 9.5232-35.4816 9.5232-13.2096 0-25.8048-3.3792-35.4816-9.5744L272.3328 409.2416v246.272c0 26.4192 21.504 47.872 47.872 47.872h383.5904c26.4192 0 47.872-21.4528 47.872-47.8208V408.8832l-204.1856 130.048z" fill="#E2B39A" p-id="9344"></path></svg>